<svg width="164" height="80" viewBox="0 0 164 80" fill="none" xmlns="http://www.w3.org/2000/svg">
<path d="M8.44338 65.0829H0V64.2051H9.94392L1.49072 78.9365H9.94392V79.815H0L8.44338 65.0829Z" fill="white"/>
<path d="M24.9577 64.2048V65.0826H18.0829V71.5709H24.9577V72.4486H18.0829V78.937H24.9577V79.8147H17.2117V64.2048H24.9577Z" fill="white"/>
<path d="M32.8544 65.0925V73.5122H35.4883C36.6368 73.5122 37.6197 73.1011 38.4365 72.2782C39.2533 71.4553 39.6613 70.4618 39.6613 69.2978C39.6613 68.1338 39.2533 67.1411 38.4365 66.322C37.6197 65.5029 36.6368 65.0925 35.4883 65.0925H32.8544ZM35.7497 74.39C35.6659 74.3968 35.5782 74.3999 35.4883 74.3999H32.8544V79.8148H31.9833V64.2049H36.0497C37.2306 64.3678 38.2348 64.8649 39.0614 65.6977C40.0489 66.6927 40.543 67.8925 40.543 69.2978C40.543 70.7092 40.0489 71.912 39.0614 72.9078C38.3768 73.5967 37.5925 74.0489 36.7085 74.2636L40.2816 79.8148H39.2064L35.7497 74.39Z" fill="white"/>
<path d="M54.5983 64.878C52.6482 64.878 50.9853 65.5723 49.6071 66.9608C48.2282 68.3502 47.5391 70.0257 47.5391 71.9906C47.5391 73.9547 48.2282 75.6325 49.6071 77.0249C50.9853 78.4165 52.6482 79.1123 54.5983 79.1123C56.5477 79.1123 58.2114 78.4165 59.5896 77.0249C60.9677 75.6325 61.6568 73.9547 61.6568 71.9906C61.6568 70.0257 60.9677 68.3502 59.5896 66.9608C58.2114 65.5723 56.5477 64.878 54.5983 64.878ZM60.2189 66.3267C61.7716 67.8911 62.5476 69.7791 62.5476 71.9906C62.5476 74.2021 61.7716 76.0893 60.2189 77.6537C58.6663 79.2181 56.7932 79.9999 54.5983 79.9999C52.4034 79.9999 50.5297 79.2181 48.9777 77.6537C47.4251 76.0893 46.6491 74.2021 46.6491 71.9906C46.6491 69.7791 47.4251 67.8911 48.9777 66.3267C50.5297 64.763 52.4034 63.9804 54.5983 63.9804C56.7932 63.9804 58.6663 64.763 60.2189 66.3267Z" fill="white"/>
<path d="M81.7887 64.2048L87.608 74.3511L93.4182 64.2048H94.4148L94.3763 64.2733V79.8147H93.5051V65.7951L87.608 76.0784L81.7018 65.7951V79.8147H80.8298V64.2733L80.7913 64.2048H81.7887Z" fill="white"/>
<path d="M109.391 64.878C107.44 64.878 105.777 65.5723 104.399 66.9608C103.02 68.3502 102.331 70.0257 102.331 71.9906C102.331 73.9547 103.02 75.6325 104.399 77.0249C105.777 78.4165 107.44 79.1123 109.391 79.1123C111.34 79.1123 113.004 78.4165 114.382 77.0249C115.76 75.6325 116.449 73.9547 116.449 71.9906C116.449 70.0257 115.76 68.3502 114.382 66.9608C113.004 65.5723 111.34 64.878 109.391 64.878ZM115.011 66.3267C116.564 67.8911 117.341 69.7791 117.341 71.9906C117.341 74.2021 116.564 76.0893 115.011 77.6537C113.458 79.2181 111.585 79.9999 109.391 79.9999C107.196 79.9999 105.322 79.2181 103.77 77.6537C102.217 76.0893 101.441 74.2021 101.441 71.9906C101.441 69.7791 102.217 67.8911 103.77 66.3267C105.322 64.763 107.196 63.9804 109.391 63.9804C111.585 63.9804 113.458 64.763 115.011 66.3267Z" fill="white"/>
<path d="M133.603 64.2048H134.484V75.4244C134.323 76.6143 133.829 77.6261 133.003 78.4589C132.015 79.4539 130.825 79.951 129.431 79.951C128.029 79.951 126.835 79.4539 125.847 78.4589C124.86 77.4639 124.365 76.2634 124.365 74.8588V64.2048H125.247V74.8588C125.247 76.0167 125.655 77.0064 126.473 77.8293C127.289 78.6522 128.275 79.0633 129.431 79.0633C130.586 79.0633 131.57 78.6522 132.383 77.8293C133.197 77.0064 133.603 76.0167 133.603 74.8588V64.2048Z" fill="white"/>
<path d="M145.605 71.1708C144.501 70.8 143.63 70.293 142.991 69.6482C142.352 69.0049 142.032 68.2239 142.032 67.3073C142.032 66.4097 142.352 65.6371 142.991 64.99C143.63 64.3429 144.405 64.0193 145.315 64.0193C146.219 64.0193 146.993 64.3414 147.639 64.9854C147.994 65.3303 148.239 65.717 148.375 66.1463L147.591 66.4585C147.475 66.1403 147.284 65.8472 147.019 65.5807C146.548 65.1125 145.98 64.8781 145.315 64.8781C144.65 64.8781 144.082 65.1133 143.611 65.5853C143.139 66.0573 142.904 66.6313 142.904 67.3073C142.904 67.9772 143.139 68.5497 143.611 69.0247C144.05 69.4602 144.656 69.8598 145.432 70.2245C146.671 70.628 147.713 71.2552 148.559 72.1071C149.456 73.0047 149.904 74.091 149.904 75.3661C149.904 76.6474 149.456 77.7398 148.559 78.6434C147.662 79.5478 146.58 80 145.315 80C144.05 80 142.968 79.5448 142.072 78.6343C141.355 77.9118 140.925 77.0729 140.783 76.1175L141.607 75.8145C141.697 76.6603 142.056 77.3987 142.681 78.0291C143.411 78.7645 144.289 79.1322 145.315 79.1322C146.347 79.1322 147.229 78.7645 147.958 78.0291C148.688 77.2944 149.052 76.406 149.052 75.3661C149.052 74.3316 148.688 73.447 147.958 72.7123C147.32 72.0683 146.535 71.5544 145.605 71.1708Z" fill="white"/>
<path d="M163.951 64.2048V65.0826H157.076V71.5709H163.951V72.4486H157.076V78.937H163.951V79.8147H156.204V64.2048H163.951Z" fill="white"/>
<path d="M96.2252 19.0592H89.4267L86.233 14.6096C86.1302 14.4931 85.939 14.5662 85.939 14.7223V22.386C85.939 26.8318 84.9493 28.4366 82.7113 30.9838C81.1193 32.7949 77.4934 36.4962 76.5202 45.2828L76.4976 30.0292C76.7484 18.5461 69.6779 14.0348 64.8347 14.0348C64.7335 14.0348 64.6436 14.0447 64.5514 14.0523L81.2908 0.455241L99.1145 14.8113L96.2252 19.0592ZM99.5331 14.7322C99.5353 14.6675 99.5111 14.6035 99.456 14.5616L81.4268 0.038821C81.3921 0.0121765 81.3513 0.0022834 81.3112 0.000760855C81.3037 -4.182e-07 81.2976 0 81.2901 0C81.284 0 81.2772 -4.182e-07 81.2704 0.000760855C81.2296 0.0022834 81.1896 0.0121765 81.1548 0.038821L63.474 14.401C63.4528 14.417 63.4226 14.4475 63.3924 14.484C62.6497 15.1501 63.1151 16.3232 64.7819 16.3232C72.9593 17.1096 74.184 26.2967 74.1198 30.0292V47.0223C74.1198 47.0612 74.1244 47.0977 74.1312 47.1327C73.9491 51.4202 76.5701 54.2651 77.9286 54.2651H99.5346V14.7405L99.5331 14.7322Z" fill="white"/>
<path d="M71.4861 44.8191L71.2277 44.542C70.2531 45.4631 70.6354 47.1707 71.4023 48.3666C71.9485 49.2177 72.0853 50.1617 71.7597 50.8301C71.6229 51.111 71.4045 51.3189 71.1348 51.4612C70.8757 50.0217 68.7034 49.1393 67.1319 50.2675C66.8621 50.4609 66.6045 50.652 66.3559 50.84C66.3279 49.9037 65.5678 49.1523 64.6317 49.1523C63.6782 49.1523 62.9045 49.9318 62.9045 50.8933C62.9045 51.7147 63.4697 52.4006 64.229 52.5841C63.6064 53.1398 63.2037 53.5517 63.0851 53.7108C62.7443 54.1683 63.0851 54.265 63.0851 54.265C64.7549 54.265 68.1466 54.2239 68.8591 54.265C69.125 54.265 69.8254 53.9757 70.5251 53.1992C70.9149 52.766 71.1084 52.3352 71.1537 51.9317C71.1537 51.9317 71.159 51.9058 71.1605 51.8677C71.5708 51.6957 71.8994 51.4064 72.0989 50.9984C72.4888 50.1983 72.3467 49.1371 71.7196 48.1603C71.0132 47.0588 70.7057 45.5575 71.4861 44.8191Z" fill="white"/>
</svg>
