<?xml version="1.0" encoding="UTF-8"?>
<svg id="Laag_1" xmlns="http://www.w3.org/2000/svg" version="1.1" viewBox="0 0 36.63 54.27">
  <!-- Generator: Adobe Illustrator 30.3.0, SVG Export Plug-In . SVG Version: 2.1.3 Build 182)  -->
  <defs>
    <style>
      .st0 {
        fill: #fff;
      }
    </style>
  </defs>
  <path class="st0" d="M33.32,19.06h-6.8l-3.19-4.45c-.1-.12-.29-.04-.29.11v7.66c0,4.45-.99,6.05-3.23,8.6-1.59,1.81-5.22,5.51-6.19,14.3l-.02-15.25c.25-11.48-6.82-15.99-11.66-15.99-.1,0-.19,0-.28.02L18.39.46l17.82,14.36-2.89,4.25ZM36.63,14.73c0-.06-.02-.13-.08-.17L18.52.04s-.08-.04-.12-.04C18.4,0,18.39,0,18.39,0,18.38,0,18.37,0,18.37,0c-.04,0-.08.01-.12.04L.57,14.4s-.05.05-.08.08c-.74.67-.28,1.84,1.39,1.84,8.18.79,9.4,9.97,9.34,13.71v16.99s0,.08.01.11c-.18,4.29,2.44,7.13,3.8,7.13h21.61V14.74h0Z"/>
  <path class="st0" d="M8.58,44.82l-.26-.28c-.97.92-.59,2.63.17,3.82.55.85.68,1.8.36,2.46-.14.28-.36.49-.62.63-.26-1.44-2.43-2.32-4-1.19-.27.19-.53.38-.78.57-.03-.94-.79-1.69-1.72-1.69s-1.73.78-1.73,1.74c0,.82.57,1.51,1.32,1.69-.62.56-1.03.97-1.14,1.13-.34.46,0,.55,0,.55,1.67,0,5.06-.04,5.77,0,.27,0,.97-.29,1.67-1.07.39-.43.58-.86.63-1.27,0,0,0-.03,0-.06.41-.17.74-.46.94-.87.39-.8.25-1.86-.38-2.84-.71-1.1-1.01-2.6-.23-3.34Z"/>
</svg>